# xmcd
#
# Track frame offsets:
#	182
#	18455
#	36395
#	52697
#	71847
#	91712
#	108430
#	123607
#	142625
#	162912
#	178650
#	196230
#	218767
#
# Disc length: 3181 seconds
#
# Revision: 1
# Processed by: cddbd v1.5.1PL0 Copyright (c) Steve Scherf et al.
# Submitted via: dBpowerAMP V4.0
#
DISCID=ac0c6b0d
DTITLE=Netinho - Um Beijo Pra Você
DYEAR=1993
DGENRE=axé
TTITLE0=Capricho Dos Deuses
TTITLE1=Raça
TTITLE2=Menina
TTITLE3=Carta À Mãe (Com Gilberto Gil)
TTITLE4=Total (Total)
TTITLE5=Reggae Das Ruas
TTITLE6=Por Que Tudo Acabou
TTITLE7=Sereia
TTITLE8=Dia De Festa
TTITLE9=Desejo
TTITLE10=Beija-me
TTITLE11=Diamante
TTITLE12=Total
EXTD=
EXTT0=
EXTT1=
EXTT2=
EXTT3=
EXTT4=
EXTT5=
EXTT6=
EXTT7=
EXTT8=
EXTT9=
EXTT10=
EXTT11=
EXTT12=
PLAYORDER=
